<?xml version="1.0" standalone="no"?>
<!DOCTYPE svg PUBLIC "-//W3C//DTD SVG 20010904//EN"
 "http://www.w3.org/TR/2001/REC-SVG-20010904/DTD/svg10.dtd">
<svg version="1.0" xmlns="http://www.w3.org/2000/svg"
 width="2000.000000pt" height="520.000000pt" viewBox="0 0 2000.000000 520.000000"
 preserveAspectRatio="xMidYMid meet">

<g transform="translate(0.000000,520.000000) scale(0.100000,-0.100000)"
fill="#000000" stroke="none">
<path d="M4526 5129 c-109 -26 -216 -114 -264 -217 -24 -50 -27 -70 -27 -157
0 -89 3 -107 29 -162 92 -200 356 -288 570 -190 181 83 268 302 200 500 -33
98 -156 199 -275 226 -53 13 -180 12 -233 0z"/>
<path d="M8812 5125 c-107 -30 -197 -104 -249 -205 -26 -50 -28 -64 -28 -165
0 -99 3 -115 27 -165 34 -70 113 -150 182 -183 115 -57 272 -57 393 -2 68 31
148 111 179 179 96 210 21 423 -183 519 -58 26 -79 31 -167 34 -68 2 -118 -2
-154 -12z"/>
<path d="M190 2951 l0 -1821 858 0 c1006 0 1094 5 1382 81 219 58 442 161 620
287 122 86 317 281 403 402 130 184 222 401 274 649 26 118 27 142 28 391 0
278 -5 326 -52 515 -153 617 -658 1087 -1338 1248 -250 59 -260 60 -1257 64
l-918 4 0 -1820z m1868 1220 c568 -105 936 -475 1013 -1019 15 -110 6 -402
-16 -502 -92 -418 -364 -723 -770 -863 -219 -76 -340 -87 -941 -87 l-474 0 0
1251 0 1251 538 -5 c489 -5 547 -7 650 -26z"/>
<path d="M11413 3929 c-292 -27 -556 -147 -730 -332 l-53 -56 0 185 0 184
-307 -2 -308 -3 -3 -1892 -2 -1893 325 0 325 0 0 675 0 676 63 -61 c272 -267
697 -372 1155 -285 87 17 258 73 327 107 330 166 572 449 683 798 95 300 93
697 -4 989 -113 340 -379 639 -695 785 -218 100 -520 149 -776 125z m273 -570
c354 -77 586 -373 610 -777 36 -606 -404 -1017 -981 -917 -314 55 -547 274
-632 593 -23 86 -26 116 -26 262 0 145 3 177 26 261 118 446 528 682 1003 578z"/>
<path d="M14365 3934 c-307 -23 -565 -84 -777 -182 -99 -46 -258 -146 -258
-162 0 -19 242 -460 252 -460 6 0 27 14 48 30 97 77 320 170 485 204 190 39
428 39 576 1 218 -56 364 -208 404 -421 8 -42 15 -102 15 -135 l0 -59 -434 0
c-239 0 -480 -5 -537 -10 -207 -21 -404 -79 -539 -157 -84 -49 -201 -161 -245
-233 -72 -119 -114 -274 -114 -420 0 -534 487 -884 1158 -831 309 25 517 112
679 285 l72 78 0 -166 0 -166 305 0 306 0 -4 923 c-3 1015 -2 993 -67 1189
-52 155 -117 263 -221 367 -204 204 -505 312 -904 324 -82 3 -172 3 -200 1z
m745 -1779 c0 -155 -2 -169 -24 -213 -86 -169 -228 -282 -432 -343 -96 -29
-320 -37 -423 -15 -153 32 -266 109 -318 215 -25 49 -28 67 -28 151 0 84 3
102 28 152 40 82 118 149 204 177 106 34 171 38 596 40 l397 1 0 -165z"/>
<path d="M4320 2520 l0 -1390 325 0 325 0 -2 1388 -3 1387 -322 3 -323 2 0
-1390z"/>
<path d="M5270 3898 c0 -7 266 -633 591 -1390 l592 -1378 336 2 335 3 593
1380 c326 759 593 1383 593 1388 0 4 -140 6 -310 5 l-311 -3 -442 -1022 c-243
-563 -445 -1023 -448 -1023 -3 0 -196 456 -429 1013 -233 556 -427 1018 -433
1025 -14 18 -667 18 -667 0z"/>
<path d="M8617 3903 c-4 -3 -7 -629 -7 -1390 l0 -1383 325 0 325 0 0 1390 0
1390 -318 0 c-175 0 -322 -3 -325 -7z"/>
<path d="M15974 3893 c4 -10 277 -637 607 -1395 l601 -1377 -42 -93 c-58 -131
-121 -227 -190 -291 -79 -74 -145 -99 -273 -105 -164 -7 -283 27 -429 125 -44
30 -84 50 -88 46 -12 -13 -250 -455 -250 -464 0 -4 38 -33 85 -64 97 -65 212
-115 353 -153 90 -24 111 -26 307 -26 197 0 216 2 309 27 116 31 200 69 288
128 142 96 291 284 395 499 64 130 1354 3106 1361 3138 l4 22 -308 -2 -309 -3
-432 -1010 c-237 -555 -435 -1016 -440 -1024 -6 -9 -153 327 -444 1010 l-435
1024 -338 3 c-319 2 -338 1 -332 -15z"/>
<path d="M19217 1931 c-197 -65 -310 -259 -277 -476 24 -162 126 -283 281
-335 91 -31 229 -26 312 12 66 31 155 112 192 173 32 56 55 145 55 217 0 181
-83 317 -240 392 -57 27 -77 31 -165 33 -77 2 -113 -1 -158 -16z"/>
</g>
</svg>
